<?xml version="1.0" encoding="utf-8"?>
<?xml-stylesheet type="text/xsl" href="rss1.xsl"?>
<rss version="2.0" xmlns:atom="http://www.w3.org/2005/Atom" xmlns:content="http://purl.org/rss/1.0/modules/content/" xmlns:dc="http://purl.org/dc/elements/1.1/" xmlns:media="http://search.yahoo.com/mrss/">
<channel>
 <title>Getty</title>
 <link>http://www.gettyimg.com/</link>
 <atom:link href="http://www.gettyimg.com/" rel="self" type="application/rss+xml" />

 
                <item>
                <title><![CDATA[【HD Live Performances】FEED - Lasso, Chiquis, Akon, Oriana and Adriel - It’s not just a Game - Concacaf Gold Cup Final 2023 1080i FEED MPA-TSS]]></title>
                <link><![CDATA[https://sharemania.us/threads/lasso-chiquis-akon-oriana-and-adriel-it%E2%80%99s-not-just-a-game-concacaf-gold-cup-final-2023-1080i-feed-mpa-tss.224698/]]></link>
                <description><![CDATA[<article>
<blockquote class="messageText SelectQuoteContainer ugc baseHtml">
<img src="https://i.imgur.com/DVcY8YO.png" class="bbCodeImage LbImage" alt="[​IMG]" data-url="https://i.imgur.com/DVcY8YO.png" style=""> <br>
<br>
<div class="ToggleTriggerAnchor bbCodeSpoilerContainer">
<button type="button" class="button bbCodeSpoilerButton ToggleTrigger Tooltip JsOnly" data-target="> .SpoilerTarget"><span>Spoiler: <span class="SpoilerTitle">Media Info</span></span></button>
<div class="SpoilerTarget bbCodeSpoilerText">General<br>
Unique ID : 55886147516410923621090767431123088220 (0x2A0B47CEB4ADA770AA8EC09C5BB8335C)<br>
Complete name : C:\Users\thesl\Videos\Lasso, Chiquis, Akon, Oriana and Adriel - It’s not just a Game - Concacaf Gold Cup Final 2023 1080i FEED MPA.mkv<br>
Format : Matroska<br>
Format version : Version 4<br>
File size : 556 MiB<br>
Duration : 5 min 47 s<br>
Overall bit rate : 13.4 Mb/s<br>
Writing application : VideoReDo (Lavf58.29.100)<br>
Writing library : VideoReDo (Lavf58.29.100)<br>
ErrorDetectionType : Per level 1<br>
Video<br>
ID : 1<br>
Format : AVC<br>
Format/Info : Advanced Video Codec<br>
Format profile : High@L4.1<br>
Format settings : CABAC / 4 Ref Frames<br>
Format settings, CABAC : Yes<br>
Format settings, Reference frames : 4 frames<br>
Format settings, GOP : M=4, N=40<br>
Codec ID : V_MPEG4/ISO/AVC<br>
Duration : 5 min 46 s<br>
Bit rate : 12.4 Mb/s<br>
Width : 1 920 pixels<br>
Height : 1 080 pixels<br>
Display aspect ratio : 16:9<br>
Frame rate mode : Constant<br>
Frame rate : 25.000 FPS<br>
Color space : YUV<br>
Chroma subsampling : 4:2:0<br>
Bit depth : 8 bits<br>
Scan type : Interlaced<br>
Scan type, store method : Separated fields<br>
Scan order : Top Field First<br>
Bits/(Pixel*Frame) : 0.239<br>
Stream size : 513 MiB (92%)<br>
Default : No<br>
Forced : No<br>
Color range : Limited<br>
Color primaries : BT.709<br>
Transfer characteristics : BT.709<br>
Matrix coefficients : BT.709<br>
Audio #1<br>
ID : 2<br>
Format : MPEG Audio<br>
Format version : Version 1<br>
Format profile : Layer 2<br>
Codec ID : A_MPEG/L2<br>
Codec ID/Hint : MP2<br>
Duration : 5 min 46 s<br>
Bit rate mode : Constant<br>
Bit rate : 192 kb/s<br>
Channel(s) : 2 channels<br>
Sampling rate : 48.0 kHz<br>
Compression mode : Lossy<br>
Stream size : 7.94 MiB (1%)<br>
Language : English<br>
Default : Yes<br>
Forced : No<br>
Audio #2<br>
ID : 3<br>
Format : MPEG Audio<br>
Format version : Version 1<br>
Format profile : Layer 2<br>
Codec ID : A_MPEG/L2<br>
Codec ID/Hint : MP2<br>
Duration : 5 min 46 s<br>
Bit rate mode : Constant<br>
Bit rate : 192 kb/s<br>
Channel(s) : 2 channels<br>
Sampling rate : 48.0 kHz<br>
Compression mode : Lossy<br>
Stream size : 7.94 MiB (1%)<br>
Language : English<br>
Default : No<br>
Forced : No<br>
Audio #3<br>
ID : 4<br>
Format : MPEG Audio<br>
Format version : Version 1<br>
Format profile : Layer 2<br>
Codec ID : A_MPEG/L2<br>
Codec ID/Hint : MP2<br>
Duration : 5 min 46 s<br>
Bit rate mode : Constant<br>
Bit rate : 192 kb/s<br>
Channel(s) : 2 channels<br>
Sampling rate : 48.0 kHz<br>
Compression mode : Lossy<br>
Stream size : 7.94 MiB (1%)<br>
Language : English<br>
Default : No<br>
Forced : No<br>
Audio #4<br>
ID : 5<br>
Format : MPEG Audio<br>
Format version : Version 1<br>
Format profile : Layer 2<br>
Codec ID : A_MPEG/L2<br>
Codec ID/Hint : MP2<br>
Duration : 5 min 46 s<br>
Bit rate mode : Constant<br>
Bit rate : 192 kb/s<br>
Channel(s) : 2 channels<br>
Sampling rate : 48.0 kHz<br>
Compression mode : Lossy<br>
Stream size : 7.94 MiB (1%)<br>
Language : English<br>
Default : No<br>
Forced : No<br>
Menu<br>
00:00:00.000 : :Chapter 1</div>
</div><br>
<div class="bbCodeBlock bbCodeVfcHH HiddenContent">
<div class="attribution type">Hidden Content:</div>
<blockquote>You must reply before you can see the hidden data contained here.</blockquote>
</div>
<div class="messageTextEndMarker">&nbsp;</div>
</blockquote>
</article>]]></description>
                <author><![CDATA[theslothsidd]]></author>
                </item>

                
                <item>
                <title><![CDATA[【Albums (lossy)】MP3 - Various Artists - Nỗi Buồn Châu Pha | MP3 Deezer 320kbps]]></title>
                <link><![CDATA[https://sharemania.us/threads/various-artists-n%E1%BB%97i-bu%E1%BB%93n-ch%C3%A2u-pha-mp3-deezer-320kbps.224697/]]></link>
                <description><![CDATA[<article>
<blockquote class="messageText SelectQuoteContainer ugc baseHtml">
<b><img src="https://static.qobuz.com/images/covers/6b/os/bnbbxjxq3os6b_max.jpg" class="bbCodeImage LbImage" alt="[​IMG]" data-url="https://static.qobuz.com/images/covers/6b/os/bnbbxjxq3os6b_max.jpg" style=""> <br>
<br>
<b>Title: </b><span style="font-size: 22px">Nỗi Buồn Châu Pha</span><br>
Artist: <span style="font-size: 18px">Various Artists</span><br>
Genre:</b> <b>Asia</b><br>
<b>Release date:</b> <b>01/01/1998</b><br>
<b>℗ 1998 THUY NGA</b><br>
<br>
<b>• Tracklist:</b><br>
<br>
01. Nỗi Buồn Châu Pha - Như Quỳnh<br>
02. Chút Kỷ Niệm Buồn - Mạnh Đình<br>
03. Phận Tơ Tằm - Hoàng Lan<br>
04. LK Tuổi Học Trò - Như Quỳnh, Hoàng La, Mỹ Huyền<br>
05. Nửa Đêm Ngoài Phố - Mạnh Đình<br>
06. Chung Mộng - Như Quỳnh<br>
07. Chuyện Ngàn Xưa - Hoàng Lan<br>
08. Giã Từ Người Yêu - Mạnh Đình<br>
09. Đêm Không Ngủ - Hoàng Lan<br>
10. Nửa Kiếp Cô Đơn - Mạnh Đình<br>
<br>
<div class="bbCodeBlock bbCodeVfcHH HiddenContent">
<div class="attribution type">Hidden Content:</div>
<blockquote>You must reply before you can see the hidden data contained here.</blockquote>
</div>
<div class="messageTextEndMarker">&nbsp;</div>
</blockquote>
</article>]]></description>
                <author><![CDATA[luc51nsl]]></author>
                </item>

                
                <item>
                <title><![CDATA[【Albums (lossy)】M4A - Various Artists - Nỗi Buồn Châu Pha | M4A 16bit / 44.1kHz]]></title>
                <link><![CDATA[https://sharemania.us/threads/various-artists-n%E1%BB%97i-bu%E1%BB%93n-ch%C3%A2u-pha-m4a-16bit-44-1khz.224695/]]></link>
                <description><![CDATA[<article>
<blockquote class="messageText SelectQuoteContainer ugc baseHtml">
<b><b><img src="https://static.qobuz.com/images/covers/6b/os/bnbbxjxq3os6b_max.jpg" class="bbCodeImage LbImage" alt="[​IMG]" data-url="https://static.qobuz.com/images/covers/6b/os/bnbbxjxq3os6b_max.jpg" style=""> <br>
<br>
Title: </b><span style="font-size: 22px">Nỗi Buồn Châu Pha</span><br>
Artist: <span style="font-size: 18px">Various Artists</span><br>
Genre:</b> <b>Asia</b><br>
<b>Release date:</b> <b>01/01/1998</b><br>
<b>℗ 1998 THUY NGA</b><br>
<br>
<b>• Tracklist:</b><br>
01. Nỗi Buồn Châu Pha - Như Quỳnh<br>
02. Chút Kỷ Niệm Buồn - Mạnh Đình<br>
03. Phận Tơ Tằm - Hoàng Lan<br>
04. LK Tuổi Học Trò - Như Quỳnh, Hoàng La, Mỹ Huyền<br>
05. Nửa Đêm Ngoài Phố - Mạnh Đình<br>
06. Chung Mộng - Như Quỳnh<br>
07. Chuyện Ngàn Xưa - Hoàng Lan<br>
08. Giã Từ Người Yêu - Mạnh Đình<br>
09. Đêm Không Ngủ - Hoàng Lan<br>
10. Nửa Kiếp Cô Đơn - Mạnh Đình<br>
<br>
<div class="bbCodeBlock bbCodeVfcHH HiddenContent">
<div class="attribution type">Hidden Content:</div>
<blockquote>You must reply before you can see the hidden data contained here.</blockquote>
</div>
<div class="messageTextEndMarker">&nbsp;</div>
</blockquote>
</article>]]></description>
                <author><![CDATA[luc51nsl]]></author>
                </item>

                
                <item>
                <title><![CDATA[【Albums (lossless)】FLAC - Various Artists - Nỗi Buồn Châu Pha | Tidal FLAC 16bit / 44.1kHz]]></title>
                <link><![CDATA[https://sharemania.us/threads/various-artists-n%E1%BB%97i-bu%E1%BB%93n-ch%C3%A2u-pha-tidal-flac-16bit-44-1khz.224696/]]></link>
                <description><![CDATA[<article>
<blockquote class="messageText SelectQuoteContainer ugc baseHtml">
<b><img src="https://static.qobuz.com/images/covers/6b/os/bnbbxjxq3os6b_max.jpg" class="bbCodeImage LbImage" alt="[​IMG]" data-url="https://static.qobuz.com/images/covers/6b/os/bnbbxjxq3os6b_max.jpg" style=""> <br>
<br>
<b>Title: </b><span style="font-size: 22px">Nỗi Buồn Châu Pha</span><br>
Artist: <span style="font-size: 18px">Various Artists</span><br>
Genre:</b> <b>Asia</b><br>
<b>Release date:</b> <b>01/01/1998</b><br>
<b>℗ 1998 THUY NGA</b><br>
<br>
<b>• Tracklist:</b><br>
01. Nỗi Buồn Châu Pha - Như Quỳnh<br>
02. Chút Kỷ Niệm Buồn - Mạnh Đình<br>
03. Phận Tơ Tằm - Hoàng Lan<br>
04. LK Tuổi Học Trò - Như Quỳnh, Hoàng La, Mỹ Huyền<br>
05. Nửa Đêm Ngoài Phố - Mạnh Đình<br>
06. Chung Mộng - Như Quỳnh<br>
07. Chuyện Ngàn Xưa - Hoàng Lan<br>
08. Giã Từ Người Yêu - Mạnh Đình<br>
09. Đêm Không Ngủ - Hoàng Lan<br>
10. Nửa Kiếp Cô Đơn - Mạnh Đình<br>
<br>
<div class="bbCodeBlock bbCodeVfcHH HiddenContent">
<div class="attribution type">Hidden Content:</div>
<blockquote>You must reply before you can see the hidden data contained here.</blockquote>
</div>
<div class="messageTextEndMarker">&nbsp;</div>
</blockquote>
</article>]]></description>
                <author><![CDATA[luc51nsl]]></author>
                </item>

                </channel></rss>